<?xml version="1.0" standalone="no"?>
<!DOCTYPE svg PUBLIC "-//W3C//DTD SVG 20010904//EN"
 "http://www.w3.org/TR/2001/REC-SVG-20010904/DTD/svg10.dtd">
<svg version="1.0" xmlns="http://www.w3.org/2000/svg"
 width="700.000000pt" height="700.000000pt" viewBox="0 0 700.000000 700.000000"
 preserveAspectRatio="xMidYMid meet">
<metadata>
Created by potrace 1.11, written by Peter Selinger 2001-2013
</metadata>
<g transform="translate(0.000000,700.000000) scale(0.100000,-0.100000)"
fill="#000000" stroke="none">
<path d="M351 6929 c-114 -22 -237 -111 -294 -213 -57 -102 -57 -103 -56 -921
0 -438 4 -771 10 -800 24 -125 116 -244 233 -299 39 -19 91 -38 116 -41 53 -8
65 -15 24 -15 -113 -1 -271 -107 -330 -222 -54 -107 -54 -100 -54 -930 1 -736
2 -769 20 -824 51 -148 142 -238 289 -289 24 -8 55 -15 69 -15 30 0 26 -7 -8
-13 -102 -20 -170 -55 -240 -126 -63 -63 -105 -140 -120 -219 -6 -33 -10 -343
-10 -807 0 -658 3 -760 16 -807 51 -170 172 -284 334 -316 19 -4 1443 -7 3165
-7 3052 0 3131 0 3185 19 142 49 239 153 284 305 14 48 16 145 16 821 -1 643
-3 774 -15 815 -48 161 -162 272 -327 316 l-47 13 62 16 c151 39 261 147 308
302 17 58 18 108 19 807 0 441 -4 770 -10 805 -19 116 -95 231 -194 293 -49
31 -140 63 -179 63 -37 0 -33 6 8 13 181 29 324 161 364 338 7 28 10 328 8
829 l-2 785 -36 75 c-62 132 -179 224 -314 249 -72 13 -6226 14 -6294 0z"/>
</g>
</svg>
