<?xml version="1.0" encoding="utf-8"?>
<!-- Generator: Adobe Illustrator 17.0.0, SVG Export Plug-In . SVG Version: 6.00 Build 0)  -->
<!DOCTYPE svg PUBLIC "-//W3C//DTD SVG 1.1//EN" "http://www.w3.org/Graphics/SVG/1.1/DTD/svg11.dtd">
<svg version="1.1" id="Слой_1" xmlns="http://www.w3.org/2000/svg" xmlns:xlink="http://www.w3.org/1999/xlink" x="0px" y="0px"
	 width="20.873px" height="18px" viewBox="491.063 533.5 20.873 18" enable-background="new 491.063 533.5 20.873 18"
	 xml:space="preserve">
<g id="icomoon-ignore">
</g>
<path fill="#FFE13E" d="M491.063,548.257l0.144-0.164c0,0.903,0.417,1.683,1.252,2.34c0.821,0.698,2.066,1.054,3.735,1.067
	c2.011-0.027,3.537-0.499,4.577-1.416c1.013-0.869,1.519-1.857,1.519-2.966v-0.174c0-0.78-0.185-1.409-0.554-1.888
	c-0.369-0.506-0.814-0.958-1.334-1.355l-0.78-0.698c-0.123-0.068-0.246-0.205-0.369-0.411c-0.151-0.123-0.226-0.328-0.226-0.616
	c0-0.219,0.068-0.445,0.205-0.677c0.151-0.178,0.28-0.342,0.39-0.493l0.698-0.554c0.205-0.26,0.39-0.486,0.554-0.677
	c0.369-0.575,0.554-1.259,0.554-2.052c0-0.52-0.055-0.924-0.164-1.211c-0.137-0.424-0.28-0.725-0.431-0.903
	c-0.151-0.287-0.328-0.506-0.534-0.657l-0.144-0.205v0.082l-0.123-0.205c-0.096-0.041-0.137-0.068-0.123-0.082
	c0.014,0.082-0.027,0.075-0.123-0.021l1.478,0.041l1.478-0.862l-4.782,0.021c-0.698,0-1.375,0.068-2.032,0.205
	c-0.766,0.178-1.471,0.534-2.114,1.067c-0.999,0.958-1.498,2.018-1.498,3.181c0,0.985,0.349,1.84,1.047,2.566
	c0.657,0.78,1.628,1.177,2.914,1.19c0.192,0,0.445-0.014,0.759-0.041l-0.185,0.411c-0.027,0.137-0.055,0.308-0.082,0.513
	c0.014,0.356,0.089,0.657,0.226,0.903c0.151,0.274,0.301,0.52,0.452,0.739c-0.452,0-1.156,0.068-2.114,0.205
	c-0.807,0.151-1.615,0.445-2.422,0.883c-0.657,0.41-1.136,0.889-1.437,1.437C491.227,547.34,491.091,547.833,491.063,548.257z
	 M493.034,547.908v-0.082l0.103-0.062V547.6c0-0.369,0.082-0.677,0.246-0.924c0.123-0.301,0.308-0.541,0.554-0.718
	c0.205-0.205,0.424-0.349,0.657-0.431l0.472-0.226c0.52-0.137,1.019-0.246,1.498-0.328c0.342-0.014,0.595-0.027,0.759-0.041
	l0.205,0.021c0.123-0.014,0.294-0.007,0.513,0.021c0.876,0.616,1.526,1.136,1.95,1.56c0.369,0.438,0.568,0.971,0.595,1.601
	c-0.027,0.725-0.315,1.334-0.862,1.827c-0.629,0.479-1.491,0.725-2.586,0.739c-1.286-0.027-2.271-0.301-2.956-0.821
	C493.417,549.338,493.034,548.681,493.034,547.908z M494.183,537.092v-0.246l0.041-0.041v-0.133c0-0.588,0.171-1.098,0.513-1.529
	c0.376-0.52,0.886-0.78,1.529-0.78h0.154c0.431,0,0.841,0.144,1.231,0.431c0.315,0.26,0.609,0.636,0.883,1.129
	c0.438,0.93,0.677,1.881,0.718,2.853c-0.041,0.151-0.062,0.417-0.062,0.8c-0.096,0.301-0.226,0.609-0.39,0.924
	c-0.452,0.411-0.978,0.636-1.58,0.677c-0.534-0.014-0.978-0.157-1.334-0.431c-0.397-0.315-0.712-0.677-0.944-1.088
	C494.436,538.747,494.183,537.892,494.183,537.092z M502.66,539.165l0.021-0.082l0.041-1.416l3.941-0.041l0.041-3.941l1.211-0.041
	l0.041,4.043l3.941-0.041l0.041,1.498l-4.023-0.021l0.021,4.023h-1.293l0.021-3.982H502.66z"/>
</svg>
