<?xml version="1.0" encoding="utf-8"?>
<!-- Generator: Adobe Illustrator 17.0.0, SVG Export Plug-In . SVG Version: 6.00 Build 0)  -->
<!DOCTYPE svg PUBLIC "-//W3C//DTD SVG 1.1//EN" "http://www.w3.org/Graphics/SVG/1.1/DTD/svg11.dtd">
<svg version="1.1" id="Слой_1" xmlns="http://www.w3.org/2000/svg" xmlns:xlink="http://www.w3.org/1999/xlink" x="0px" y="0px"
	 width="18.058px" height="18px" viewBox="493.5 501.5 18.058 18" enable-background="new 493.5 501.5 18.058 18"
	 xml:space="preserve">
<g id="icomoon-ignore">
</g>
<path fill="#FFE13E" d="M493.5,517.42l0.071-0.053v0.353c0.071,0.494,0.294,0.917,0.67,1.269c0.4,0.329,0.846,0.5,1.34,0.511
	l13.945-0.018c0.047,0.012,0.129,0.006,0.247-0.018c0.494-0.047,0.923-0.27,1.287-0.67c0.317-0.364,0.488-0.811,0.511-1.34
	l-0.035-13.91l0.035-0.106c-0.023-0.035-0.029-0.059-0.018-0.071c-0.071-0.517-0.3-0.964-0.688-1.34
	c-0.411-0.329-0.882-0.505-1.41-0.529l-13.875,0.035c-0.118-0.023-0.241-0.012-0.37,0.035c-0.494,0.071-0.905,0.311-1.234,0.723
	c-0.306,0.353-0.464,0.805-0.476,1.357l0.018,6.876c-0.006,0.394-0.009,0.879-0.009,1.454c0,0.576,0.003,1.243,0.009,2.001
	C493.506,515.533,493.5,516.679,493.5,517.42z M495.404,516.803l0.071-0.018v-7.704l1.64,0.035
	c-0.118,0.458-0.176,0.934-0.176,1.428c0,0.882,0.212,1.745,0.635,2.592c0.494,0.917,1.199,1.657,2.116,2.221
	c0.858,0.47,1.781,0.717,2.768,0.74c0.059-0.023,0.118-0.023,0.176,0c1.058-0.059,2.027-0.364,2.909-0.917
	c0.964-0.67,1.663-1.551,2.098-2.644c0.223-0.646,0.341-1.293,0.353-1.939c-0.012-0.494-0.071-0.975-0.176-1.446l1.481-0.035
	l0.018,0.176c-0.006,0.27-0.009,0.591-0.009,0.961c0,0.735,0.009,1.666,0.026,2.794c0,1.657,0.006,2.915,0.018,3.773
	c-0.012,0.188-0.076,0.359-0.194,0.511c-0.141,0.118-0.311,0.188-0.511,0.212l-12.5-0.035c-0.029,0.006-0.056,0.009-0.079,0.009
	c-0.17,0-0.32-0.068-0.45-0.203C495.486,517.196,495.416,517.026,495.404,516.803z M498.948,510.747v-0.132l0.018-0.018v-0.044
	c0-0.94,0.341-1.742,1.023-2.406c0.658-0.682,1.475-1.023,2.451-1.023c0.928,0,1.745,0.335,2.451,1.005
	c0.635,0.682,0.97,1.504,1.005,2.468c-0.035,0.964-0.376,1.781-1.023,2.451c-0.705,0.682-1.522,1.023-2.451,1.023
	c-0.999,0-1.816-0.335-2.451-1.005C499.288,512.413,498.948,511.64,498.948,510.747z M505.823,506.472l0.018-0.035l0.053-2.063
	c-0.035-0.2,0.029-0.364,0.194-0.494c0.106-0.129,0.27-0.194,0.494-0.194h2.027c0.2,0,0.364,0.071,0.494,0.212
	c0.129,0.129,0.194,0.294,0.194,0.494v2.063c0,0.2-0.07,0.37-0.212,0.511c-0.129,0.129-0.294,0.194-0.494,0.194h-2.063
	c-0.2,0-0.37-0.065-0.511-0.194C505.888,506.836,505.823,506.671,505.823,506.472z"/>
</svg>
