<?xml version="1.0" encoding="utf-8"?>
<!-- Generator: Adobe Illustrator 17.0.0, SVG Export Plug-In . SVG Version: 6.00 Build 0)  -->
<!DOCTYPE svg PUBLIC "-//W3C//DTD SVG 1.1//EN" "http://www.w3.org/Graphics/SVG/1.1/DTD/svg11.dtd">
<svg version="1.1" id="Capa_1" xmlns="http://www.w3.org/2000/svg" xmlns:xlink="http://www.w3.org/1999/xlink" x="0px" y="0px"
	 width="33px" height="46.847px" viewBox="239.5 230.138 33 46.847" enable-background="new 239.5 230.138 33 46.847"
	 xml:space="preserve">
<g>
	<g>
		<g>
			<path fill="#FFE13E" d="M256,230.138c-9.109,0-16.493,7.385-16.493,16.493c0,0.697,0.056,1.377,0.141,2.051
				c1.409,12.884,15.281,27.732,15.281,27.732c0.247,0.277,0.485,0.447,0.715,0.571l0.012,0.006l0.462,0.147l0.462-0.147
				l0.012-0.006c0.229-0.124,0.468-0.303,0.715-0.571c0,0,13.672-14.875,15.049-27.762c0.082-0.665,0.138-1.339,0.138-2.024
				C272.49,237.523,265.109,230.138,256,230.138z M256,257.241c-5.849,0-10.609-4.76-10.609-10.609s4.76-10.609,10.609-10.609
				s10.606,4.76,10.606,10.609S261.849,257.241,256,257.241z"/>
		</g>
	</g>
</g>
</svg>
