<?xml version="1.0" encoding="utf-8"?>
<!-- Generator: Adobe Illustrator 17.0.0, SVG Export Plug-In . SVG Version: 6.00 Build 0)  -->
<!DOCTYPE svg PUBLIC "-//W3C//DTD SVG 1.1//EN" "http://www.w3.org/Graphics/SVG/1.1/DTD/svg11.dtd">
<svg version="1.1" id="Слой_1" xmlns="http://www.w3.org/2000/svg" xmlns:xlink="http://www.w3.org/1999/xlink" x="0px" y="0px"
	 width="22.101px" height="18px" viewBox="493.95 536.833 22.101 18" enable-background="new 493.95 536.833 22.101 18"
	 xml:space="preserve">
<g id="icomoon-ignore">
</g>
<path fill="#FFE13E" d="M493.95,552.805l0.151-0.216c0.36,0.043,0.719,0.065,1.079,0.065c2.101,0,3.978-0.647,5.633-1.942
	c-0.993-0.014-1.871-0.317-2.633-0.906c-0.791-0.576-1.324-1.324-1.597-2.245c0.237,0.058,0.471,0.086,0.701,0.086h0.27
	c0.353,0,0.698-0.05,1.036-0.151c-1.036-0.201-1.906-0.719-2.612-1.554c-0.676-0.806-1.022-1.763-1.036-2.87l0.022-0.022
	c0.633,0.331,1.317,0.518,2.05,0.561c-0.619-0.417-1.115-0.95-1.489-1.597c-0.36-0.662-0.54-1.374-0.54-2.137
	c0-0.82,0.201-1.576,0.604-2.266c1.137,1.381,2.511,2.496,4.122,3.345c1.612,0.82,3.345,1.288,5.201,1.403
	c-0.086-0.36-0.129-0.698-0.129-1.014c0-1.252,0.439-2.317,1.317-3.194c0.892-0.878,1.957-1.317,3.194-1.317
	c1.324,0,2.424,0.475,3.302,1.424c1.022-0.187,1.971-0.547,2.849-1.079c-0.317,1.094-0.978,1.935-1.986,2.525
	c0.906-0.101,1.77-0.338,2.59-0.712c-0.59,0.921-1.345,1.698-2.266,2.331c0.029,0.273,0.036,0.468,0.022,0.583v0.173
	c0,0.82-0.094,1.633-0.281,2.439c-0.158,0.878-0.432,1.734-0.82,2.568c-0.36,0.863-0.806,1.669-1.338,2.417
	c-0.518,0.777-1.144,1.482-1.878,2.115c-0.719,0.662-1.511,1.223-2.374,1.683c-0.835,0.489-1.791,0.863-2.871,1.122
	c-1.05,0.273-2.165,0.41-3.345,0.41C498.41,554.833,496.094,554.157,493.95,552.805z"/>
</svg>
